# xmcd
#
# Track frame offsets: 
#        150
#        14202
#        28442
#        38602
#        48582
#        57890
#        68705
#        87992
#        102000
#        113995
#        126140
#        137367
#        154245
#        169977
#        186235
#        200572
#        217700
#        236050
#        248502
#        260860
#        288915
#
# Disc length: 3992 seconds
#
# Revision: 3
# Processed by: cddbd v1.5.2PL0 Copyright (c) Steve Scherf et al.
# Submitted via: ExactAudioCopy v1.3
#
DISCID=340f9615
DTITLE=The Yardbirds - The Yardbirds Story [Disc 4] 1966-67 - An Eye V
DTITLE=iew Of Beat
DYEAR=2002
DGENRE=Classic Rock
TTITLE0=Jeff's Blues (Take 1)
TTITLE1=Jeff's Blues (Take 2)
TTITLE2=Someone To Love, Part One (Take 2, Instr.)
TTITLE3=Someone To Love, Part One (Take 4, Instr.)
TTITLE4=Someone To Love, Part One (Take 14, Instr.)
TTITLE5=Someone To Love, Part One (Take 15, Vocal)
TTITLE6=Someone To Love, Part Two
TTITLE7=Like Jimmy Reed Again
TTITLE8=Chris' Number (Take 1)
TTITLE9=Pounds And Stomps (XYZ)
TTITLE10=Pounds And Stomps
TTITLE11=What Do You Want (Take 1)
TTITLE12=What Do You Want (Take 2)
TTITLE13=What Do You Want (Take 3)
TTITLE14=What Do You Want (Take 4)
TTITLE15=Here 'Tis (Stereo Instrumental Version)
TTITLE16=Here 'Tis (Version For R.S.G.)
TTITLE17=Crimson Curtain (Edit Of Take One And Insert)
TTITLE18=Stroll On
TTITLE19=I'm A Man (Live In Germany, 1967)
TTITLE20=Shapes Of Things (Live In Germany, 1967)
EXTD=YEAR: 2002
EXTT0=
EXTT1=
EXTT2=
EXTT3=
EXTT4=
EXTT5=
EXTT6=
EXTT7=
EXTT8=
EXTT9=
EXTT10=
EXTT11=
EXTT12=
EXTT13=
EXTT14=
EXTT15=
EXTT16=
EXTT17=
EXTT18=
EXTT19=
EXTT20=
PLAYORDER=
